<svg xmlns="http://www.w3.org/2000/svg" viewBox="63.30 52.21 438.30 438.30"><metadata id="sah">{"v":1,"fig":[["h1","ma"]]}</metadata>
<circle cx="348" cy="395" r="24" fill="#f0c419" stroke="#1a1a1a" stroke-width="3"/>
<circle cx="339" cy="389" r="3" fill="#a07a10" stroke="#1a1a1a" stroke-width="0"/>
<circle cx="357" cy="389" r="3" fill="#a07a10" stroke="#1a1a1a" stroke-width="0"/>
<circle cx="348" cy="402" r="3" fill="#a07a10" stroke="#1a1a1a" stroke-width="0"/>
<circle cx="339" cy="403" r="3" fill="#a07a10" stroke="#1a1a1a" stroke-width="0"/>
<circle cx="357" cy="403" r="3" fill="#a07a10" stroke="#1a1a1a" stroke-width="0"/>
<line x1="378" y1="389" x2="400" y2="383" stroke="#8a8f98" stroke-width="3" stroke-linecap="round"/>
<line x1="378" y1="399" x2="400" y2="393" stroke="#8a8f98" stroke-width="3" stroke-linecap="round"/>
<line x1="378" y1="379" x2="400" y2="373" stroke="#8a8f98" stroke-width="3" stroke-linecap="round"/>
<line x1="96" y1="455" x2="470" y2="455" stroke="#9aa7b5" stroke-width="5" stroke-linecap="round"/>
<line x1="233" y1="303" x2="244" y2="373" stroke-linecap="round" stroke="#1a1a1a" stroke-width="31.7" data-part="ink"/><line x1="244" y1="373" x2="222" y2="455" stroke-linecap="round" stroke="#1a1a1a" stroke-width="31.7" data-part="ink"/><line x1="233" y1="303" x2="244" y2="373" stroke-linecap="round" stroke="#616161" stroke-width="23.7" data-part="leg"/><line x1="244" y1="373" x2="222" y2="455" stroke-linecap="round" stroke="#616161" stroke-width="23.7" data-part="leg"/>
<line x1="259" y1="303" x2="275" y2="349" stroke-linecap="round" stroke="#1a1a1a" stroke-width="31.7" data-part="ink"/><line x1="275" y1="349" x2="318" y2="389" stroke-linecap="round" stroke="#1a1a1a" stroke-width="31.7" data-part="ink"/><line x1="259" y1="303" x2="275" y2="349" stroke-linecap="round" stroke="#616161" stroke-width="23.7" data-part="leg"/><line x1="275" y1="349" x2="318" y2="389" stroke-linecap="round" stroke="#616161" stroke-width="23.7" data-part="leg"/>
<ellipse cx="222" cy="460" rx="20" ry="11" fill="#444444" stroke="#1a1a1a" stroke-width="5.0" data-part="shoe"/>
<ellipse cx="318" cy="394" rx="20" ry="11" fill="#444444" stroke="#1a1a1a" stroke-width="5.0" data-part="shoe"/>
<polygon data-part="top" points="218,197 274,197 272,305 220,305" fill="#00BFA5" stroke="#1a1a1a" stroke-width="6" stroke-linejoin="round"/>
<line x1="220" y1="199" x2="186" y2="241" stroke-linecap="round" stroke="#1a1a1a" stroke-width="27.3" data-part="ink"/><line x1="186" y1="241" x2="192" y2="295" stroke-linecap="round" stroke="#1a1a1a" stroke-width="27.3" data-part="ink"/><line x1="220" y1="199" x2="186" y2="241" stroke-linecap="round" stroke="#f5d6b0" stroke-width="19.3" data-part="arm"/><line x1="186" y1="241" x2="192" y2="295" stroke-linecap="round" stroke="#f5d6b0" stroke-width="19.3" data-part="arm"/><line x1="220" y1="199" x2="196" y2="229" stroke-linecap="round" stroke="#1a1a1a" stroke-width="30.3" data-part="ink"/><line x1="220" y1="199" x2="196" y2="229" stroke-linecap="round" stroke="#00BFA5" stroke-width="22.3" data-part="sleeve"/><circle cx="192" cy="295" r="10.6" fill="#f5d6b0" stroke="#1a1a1a" stroke-width="5.0" data-part="hand"/>
<line x1="272" y1="199" x2="288" y2="251" stroke-linecap="round" stroke="#1a1a1a" stroke-width="27.3" data-part="ink"/><line x1="288" y1="251" x2="290" y2="305" stroke-linecap="round" stroke="#1a1a1a" stroke-width="27.3" data-part="ink"/><line x1="272" y1="199" x2="288" y2="251" stroke-linecap="round" stroke="#f5d6b0" stroke-width="19.3" data-part="arm"/><line x1="288" y1="251" x2="290" y2="305" stroke-linecap="round" stroke="#f5d6b0" stroke-width="19.3" data-part="arm"/><line x1="272" y1="199" x2="283" y2="235" stroke-linecap="round" stroke="#1a1a1a" stroke-width="30.3" data-part="ink"/><line x1="272" y1="199" x2="283" y2="235" stroke-linecap="round" stroke="#00BFA5" stroke-width="22.3" data-part="sleeve"/><circle cx="290" cy="305" r="10.6" fill="#f5d6b0" stroke="#1a1a1a" stroke-width="5.0" data-part="hand"/>
<line x1="246" y1="197" x2="246" y2="166" stroke-linecap="round" stroke="#1a1a1a" stroke-width="21.7" data-part="ink"/><line x1="246" y1="197" x2="246" y2="166" stroke-linecap="round" stroke="#f5d6b0" stroke-width="13.7" data-part="neck"/>
<g id="h1" data-fig="ma" data-part="head"><g transform="rotate(-4 246 188)"><g transform="translate(114.06 93.25) scale(2.185)"><defs><filter id="obcq2002" x="-45%" y="-45%" width="190%" height="190%"><feMorphology in="SourceAlpha" operator="dilate" radius="1.0000" result="d"/><feFlood flood-color="#1a1a1a" result="ink"/><feComposite in="ink" in2="d" operator="in"/></filter><g id="hacq2002"><g transform="translate(64 127) scale(1.0783) translate(-64 -127)"><g transform="translate(-2.06 0) translate(63.57142857142857 0) scale(0.62 1) translate(-63.57142857142857 0)"><g transform="matrix(1.0207,0,0,1.0207,-1.32509,-2.64997)"><g transform="matrix(1,0,0,1,28.02,0)"><path d="M35.98,57.47C33.06,57.47 30.69,55.1 30.69,52.18L30.69,47.66L41.27,47.66L41.27,52.18C41.27,55.1 38.9,57.47 35.98,57.47Z" fill="#f5d6b0" fill-rule="nonzero" /></g></g></g></g><g transform="translate(64 127) scale(1.0783) translate(-64 -127)"><g transform="translate(-2.10 0) rotate(-4 63.5 50.00) translate(63.5 50.0) scale(0.6400000000000001 0.8) translate(-63.5 -50.0)"><g transform="matrix(1.0207,0,0,1.0207,-1.32509,-2.64997)"><g transform="matrix(1,0,0,1,28.02,0)"><path d="M51.89,29.71C51.89,29.71 54.81,30.22 54.81,33.36C54.81,36.13 52.68,37.23 50.55,37.23L50.55,29.72L51.89,29.72L51.89,29.71ZM20.07,29.71C20.07,29.71 17.15,30.22 17.15,33.36C17.15,36.13 19.28,37.23 21.41,37.23L21.41,29.72L20.07,29.72L20.07,29.71Z" fill="#c98a52" fill-rule="nonzero" /></g></g></g></g><g transform="translate(64 127) scale(1.0783) translate(-64 -127)"><g transform="translate(-2.10 0) rotate(-4 63.5 50.00) translate(63.5 50.0) scale(0.6400000000000001 0.8) translate(-63.5 -50.0)"><g><g transform="matrix(1.0207,0,0,1.0207,-1.32509,-2.64997)"><g transform="matrix(1,0,0,1,28.02,0)"><path d="M35.98,9.13C23.41,9.13 20.12,18.88 20.12,32.57C20.12,46.77 29.25,50.44 35.98,50.44C42.62,50.44 51.84,46.87 51.84,32.57C51.85,18.88 48.56,9.13 35.98,9.13Z" fill="#f5d6b0" fill-rule="nonzero" /></g></g></g></g></g><g transform="translate(64 127) scale(1.0783) translate(-64 -127)"><g transform="translate(-2.10 0) rotate(-4 63.5 50.00) translate(63.5 50.0) scale(0.6016000000000001 0.8) translate(-63.5 -50.0)"><g transform="matrix(1.0207,0,0,1.0207,-1.32509,-2.64997)"><g transform="matrix(1,0,0,1,28.02,0)"><path d="M40.57,42.49L35.98,42.49L31.39,42.49C30.86,42.49 30.64,42.84 30.99,43.37C31.48,44.11 33.29,45.54 35.99,45.54C38.69,45.54 40.5,44.11 40.99,43.37C41.33,42.85 41.1,42.49 40.57,42.49Z" fill="#6b4a2b" fill-rule="nonzero" /></g></g></g></g><g transform="translate(64 127) scale(1.0783) translate(-64 -127)"><g transform="translate(-2.10 0) rotate(-4 63.5 50.00) translate(63.5 50.0) scale(0.6400000000000001 0.8) translate(-63.5 -50.0)"><g transform="matrix(1.0207,0,0,1.0207,-1.32509,-2.64997)"><g transform="matrix(1,0,0,1,28.02,0)"><path d="M38.2,38.59C37.42,38.81 36.61,38.92 35.98,38.92C35.35,38.92 34.54,38.81 33.76,38.59C33.43,38.5 33.29,38.81 33.41,39.02C33.66,39.46 34.66,40.34 35.97,40.34C37.29,40.34 38.29,39.46 38.53,39.02C38.67,38.81 38.53,38.5 38.2,38.59Z" fill="#c98a52" fill-rule="nonzero" /></g></g></g></g><g transform="translate(64 127) scale(1.0783) translate(-64 -127)"><g transform="translate(-2.10 0) rotate(-4 63.5 50.00) translate(63.5 50.0) scale(0.6016000000000001 0.8) translate(-63.5 -50.0)"><g transform="matrix(1.0207,0,0,1.0207,-1.32509,-2.64997)"><g transform="matrix(1,0,0,1,28.02,0)"><path d="M36.36,7.34C36.36,7.34 36.11,7.33 36.01,7.33C35.9,7.33 35.66,7.34 35.66,7.34C22.09,7.61 18,15.77 18,21.43C18,26.93 18.01,30.97 18.01,30.97C18.01,30.97 18.23,30.75 18.62,30.44C19.04,30.11 19.52,29.92 19.52,29.92L20.21,34.52L24.73,25.07C24.76,25.01 24.82,24.98 24.88,24.98L27.56,25.28C30.25,25.58 32.96,25.72 35.66,25.73L35.66,25.74L36.36,25.74L36.36,25.73C39.07,25.72 41.77,25.58 44.46,25.28L47.14,24.98C47.2,24.97 47.27,25.01 47.29,25.07L51.81,34.52L52.5,29.92C52.5,29.92 52.97,30.11 53.4,30.44C53.8,30.75 54.01,30.97 54.01,30.97C54.01,30.97 54.02,26.93 54.02,21.43C54.02,15.77 49.93,7.61 36.36,7.34Z" fill="#5a3a1f" fill-rule="nonzero" /></g></g></g></g><g transform="translate(64 127) scale(1.0783) translate(-64 -127)"><g transform="translate(-2.10 0) rotate(-4 63.5 50.00) translate(63.5 50.0) scale(0.6400000000000001 0.8) translate(-63.5 -50.0)"><ellipse cx="53.6" cy="35.4" rx="2.3" ry="1.7" fill="#F48FB1" opacity="0.5"/></g></g><g transform="translate(64 127) scale(1.0783) translate(-64 -127)"><g transform="translate(-2.10 0) rotate(-4 63.5 50.00) translate(63.5 50.0) scale(0.6400000000000001 0.8) translate(-63.5 -50.0)"><ellipse cx="73.4" cy="35.4" rx="2.3" ry="1.7" fill="#F48FB1" opacity="0.5"/></g></g><g transform="translate(64 127) scale(1.0783) translate(-64 -127)"><g transform="translate(-2.10 0) rotate(-4 63.5 50.00) translate(63.5 50.0) scale(0.6400000000000001 0.8) translate(-63.5 -50.0)"><circle cx="57.80" cy="30.75" r="1.50" fill="#FFFFFF"/></g></g><g transform="translate(64 127) scale(1.0783) translate(-64 -127)"><g transform="translate(-2.10 0) rotate(-4 63.5 50.00) translate(63.5 50.0) scale(0.6400000000000001 0.8) translate(-63.5 -50.0)"><circle cx="69.20" cy="30.75" r="1.50" fill="#FFFFFF"/></g></g></g></defs><use href="#hacq2002" filter="url(#obcq2002)"/><use href="#hacq2002"/></g></g></g>

<g transform="translate(48.61 -0.06) scale(0.802)"><rect x="204" y="122" width="84" height="18" rx="4" fill="#2b2b33" stroke="#1a1a1a" stroke-width="2"/></g>
<line x1="204" y1="126" x2="192" y2="122" stroke="#2b2b33" stroke-width="3" stroke-linecap="round"/>
<line x1="288" y1="126" x2="300" y2="122" stroke="#2b2b33" stroke-width="3" stroke-linecap="round"/>
</svg>
