<svg xmlns="http://www.w3.org/2000/svg" viewBox="0 0 512 512"><metadata id="sah">{"v":1,"fig":[["h1","ma"]]}</metadata>

<polygon points="298,296 287,283 306,282" fill="#2b6fb0" stroke="#1a1a1a" stroke-width="2" stroke-linejoin="round"/>
<line x1="243" y1="303" x2="254" y2="373" stroke-linecap="round" stroke="#1a1a1a" stroke-width="31.7" data-part="ink"/><line x1="254" y1="373" x2="232" y2="455" stroke-linecap="round" stroke="#1a1a1a" stroke-width="31.7" data-part="ink"/><line x1="243" y1="303" x2="254" y2="373" stroke-linecap="round" stroke="#616161" stroke-width="23.7" data-part="leg"/><line x1="254" y1="373" x2="232" y2="455" stroke-linecap="round" stroke="#616161" stroke-width="23.7" data-part="leg"/>
<line x1="269" y1="303" x2="258" y2="373" stroke-linecap="round" stroke="#1a1a1a" stroke-width="31.7" data-part="ink"/><line x1="258" y1="373" x2="280" y2="455" stroke-linecap="round" stroke="#1a1a1a" stroke-width="31.7" data-part="ink"/><line x1="269" y1="303" x2="258" y2="373" stroke-linecap="round" stroke="#616161" stroke-width="23.7" data-part="leg"/><line x1="258" y1="373" x2="280" y2="455" stroke-linecap="round" stroke="#616161" stroke-width="23.7" data-part="leg"/>
<ellipse cx="232" cy="460" rx="20" ry="11" fill="#444444" stroke="#1a1a1a" stroke-width="5.0" data-part="shoe"/>
<ellipse cx="280" cy="460" rx="20" ry="11" fill="#444444" stroke="#1a1a1a" stroke-width="5.0" data-part="shoe"/>
<polygon data-part="top" points="228,197 284,197 282,305 230,305" fill="#00BFA5" stroke="#1a1a1a" stroke-width="6" stroke-linejoin="round"/>
<line x1="230" y1="199" x2="190" y2="245" stroke-linecap="round" stroke="#1a1a1a" stroke-width="27.3" data-part="ink"/><line x1="190" y1="245" x2="194" y2="305" stroke-linecap="round" stroke="#1a1a1a" stroke-width="27.3" data-part="ink"/><line x1="230" y1="199" x2="190" y2="245" stroke-linecap="round" stroke="#f5d6b0" stroke-width="19.3" data-part="arm"/><line x1="190" y1="245" x2="194" y2="305" stroke-linecap="round" stroke="#f5d6b0" stroke-width="19.3" data-part="arm"/><line x1="230" y1="199" x2="202" y2="231" stroke-linecap="round" stroke="#1a1a1a" stroke-width="30.3" data-part="ink"/><line x1="230" y1="199" x2="202" y2="231" stroke-linecap="round" stroke="#00BFA5" stroke-width="22.3" data-part="sleeve"/><circle cx="194" cy="305" r="10.6" fill="#f5d6b0" stroke="#1a1a1a" stroke-width="5.0" data-part="hand"/>
<line x1="282" y1="199" x2="307" y2="250" stroke-linecap="round" stroke="#1a1a1a" stroke-width="27.3" data-part="ink"/><line x1="307" y1="250" x2="318" y2="305" stroke-linecap="round" stroke="#1a1a1a" stroke-width="27.3" data-part="ink"/><line x1="282" y1="199" x2="307" y2="250" stroke-linecap="round" stroke="#f5d6b0" stroke-width="19.3" data-part="arm"/><line x1="307" y1="250" x2="318" y2="305" stroke-linecap="round" stroke="#f5d6b0" stroke-width="19.3" data-part="arm"/><line x1="282" y1="199" x2="299" y2="235" stroke-linecap="round" stroke="#1a1a1a" stroke-width="30.3" data-part="ink"/><line x1="282" y1="199" x2="299" y2="235" stroke-linecap="round" stroke="#00BFA5" stroke-width="22.3" data-part="sleeve"/><circle cx="318" cy="305" r="10.6" fill="#f5d6b0" stroke="#1a1a1a" stroke-width="5.0" data-part="hand"/>
<line x1="256" y1="197" x2="256" y2="166" stroke-linecap="round" stroke="#1a1a1a" stroke-width="21.7" data-part="ink"/><line x1="256" y1="197" x2="256" y2="166" stroke-linecap="round" stroke="#f5d6b0" stroke-width="13.7" data-part="neck"/>
<g id="h1" data-fig="ma" data-part="head"><g transform="rotate(-4 256 188)"><g transform="translate(124.06 93.25) scale(2.185)"><defs><filter id="obcq8079" x="-45%" y="-45%" width="190%" height="190%"><feMorphology in="SourceAlpha" operator="dilate" radius="1.0000" result="d"/><feFlood flood-color="#1a1a1a" result="ink"/><feComposite in="ink" in2="d" operator="in"/></filter><g id="hacq8079"><g transform="translate(64 127) scale(1.0783) translate(-64 -127)"><g transform="translate(-2.06 0) translate(63.57142857142857 0) scale(0.62 1) translate(-63.57142857142857 0)"><g transform="matrix(1.0207,0,0,1.0207,-1.32509,-2.64997)"><g transform="matrix(1,0,0,1,28.02,0)"><path d="M35.98,57.47C33.06,57.47 30.69,55.1 30.69,52.18L30.69,47.66L41.27,47.66L41.27,52.18C41.27,55.1 38.9,57.47 35.98,57.47Z" fill="#f5d6b0" fill-rule="nonzero" /></g></g></g></g><g transform="translate(64 127) scale(1.0783) translate(-64 -127)"><g transform="translate(-2.10 0) rotate(-4 63.5 50.00) translate(63.5 50.0) scale(0.6400000000000001 0.8) translate(-63.5 -50.0)"><g transform="matrix(1.0207,0,0,1.0207,-1.32509,-2.64997)"><g transform="matrix(1,0,0,1,28.02,0)"><path d="M51.89,29.71C51.89,29.71 54.81,30.22 54.81,33.36C54.81,36.13 52.68,37.23 50.55,37.23L50.55,29.72L51.89,29.72L51.89,29.71ZM20.07,29.71C20.07,29.71 17.15,30.22 17.15,33.36C17.15,36.13 19.28,37.23 21.41,37.23L21.41,29.72L20.07,29.72L20.07,29.71Z" fill="#c98a52" fill-rule="nonzero" /></g></g></g></g><g transform="translate(64 127) scale(1.0783) translate(-64 -127)"><g transform="translate(-2.10 0) rotate(-4 63.5 50.00) translate(63.5 50.0) scale(0.6400000000000001 0.8) translate(-63.5 -50.0)"><g><g transform="matrix(1.0207,0,0,1.0207,-1.32509,-2.64997)"><g transform="matrix(1,0,0,1,28.02,0)"><path d="M35.98,9.13C23.41,9.13 20.12,18.88 20.12,32.57C20.12,46.77 29.25,50.44 35.98,50.44C42.62,50.44 51.84,46.87 51.84,32.57C51.85,18.88 48.56,9.13 35.98,9.13Z" fill="#f5d6b0" fill-rule="nonzero" /></g></g></g></g></g><g transform="translate(64 127) scale(1.0783) translate(-64 -127)"><g transform="translate(-2.10 0) rotate(-4 63.5 50.00) translate(63.5 50.0) scale(0.6016000000000001 0.8) translate(-63.5 -50.0)"><g transform="matrix(1.0207,0,0,1.0207,-1.32509,-2.64997)"><g transform="matrix(1,0,0,1,28.02,0)"><path d="M40.57,42.49L35.98,42.49L31.39,42.49C30.86,42.49 30.64,42.84 30.99,43.37C31.48,44.11 33.29,45.54 35.99,45.54C38.69,45.54 40.5,44.11 40.99,43.37C41.33,42.85 41.1,42.49 40.57,42.49Z" fill="#6b4a2b" fill-rule="nonzero" /></g></g></g></g><g transform="translate(64 127) scale(1.0783) translate(-64 -127)"><g transform="translate(-2.10 0) rotate(-4 63.5 50.00) translate(63.5 50.0) scale(0.6400000000000001 0.8) translate(-63.5 -50.0)"><g transform="matrix(1.0207,0,0,1.0207,-1.32509,-2.64997)"><g transform="matrix(1,0,0,1,28.02,0)"><path d="M38.2,38.59C37.42,38.81 36.61,38.92 35.98,38.92C35.35,38.92 34.54,38.81 33.76,38.59C33.43,38.5 33.29,38.81 33.41,39.02C33.66,39.46 34.66,40.34 35.97,40.34C37.29,40.34 38.29,39.46 38.53,39.02C38.67,38.81 38.53,38.5 38.2,38.59Z" fill="#c98a52" fill-rule="nonzero" /></g></g></g></g><g transform="translate(64 127) scale(1.0783) translate(-64 -127)"><g transform="translate(-2.10 0) rotate(-4 63.5 50.00) translate(63.5 50.0) scale(0.6016000000000001 0.8) translate(-63.5 -50.0)"><g transform="matrix(1.0207,0,0,1.0207,-1.32509,-2.64997)"><g transform="matrix(1,0,0,1,28.02,0)"><path d="M36.36,7.34C36.36,7.34 36.11,7.33 36.01,7.33C35.9,7.33 35.66,7.34 35.66,7.34C22.09,7.61 18,15.77 18,21.43C18,26.93 18.01,30.97 18.01,30.97C18.01,30.97 18.23,30.75 18.62,30.44C19.04,30.11 19.52,29.92 19.52,29.92L20.21,34.52L24.73,25.07C24.76,25.01 24.82,24.98 24.88,24.98L27.56,25.28C30.25,25.58 32.96,25.72 35.66,25.73L35.66,25.74L36.36,25.74L36.36,25.73C39.07,25.72 41.77,25.58 44.46,25.28L47.14,24.98C47.2,24.97 47.27,25.01 47.29,25.07L51.81,34.52L52.5,29.92C52.5,29.92 52.97,30.11 53.4,30.44C53.8,30.75 54.01,30.97 54.01,30.97C54.01,30.97 54.02,26.93 54.02,21.43C54.02,15.77 49.93,7.61 36.36,7.34Z" fill="#5a3a1f" fill-rule="nonzero" /></g></g></g></g><g transform="translate(64 127) scale(1.0783) translate(-64 -127)"><g transform="translate(-2.10 0) rotate(-4 63.5 50.00) translate(63.5 50.0) scale(0.6400000000000001 0.8) translate(-63.5 -50.0)"><ellipse cx="53.6" cy="35.4" rx="2.3" ry="1.7" fill="#F48FB1" opacity="0.5"/></g></g><g transform="translate(64 127) scale(1.0783) translate(-64 -127)"><g transform="translate(-2.10 0) rotate(-4 63.5 50.00) translate(63.5 50.0) scale(0.6400000000000001 0.8) translate(-63.5 -50.0)"><ellipse cx="73.4" cy="35.4" rx="2.3" ry="1.7" fill="#F48FB1" opacity="0.5"/></g></g><g transform="translate(64 127) scale(1.0783) translate(-64 -127)"><g transform="translate(-2.10 0) rotate(-4 63.5 50.00) translate(63.5 50.0) scale(0.6400000000000001 0.8) translate(-63.5 -50.0)"><circle cx="57.80" cy="30.75" r="1.50" fill="#FFFFFF"/></g></g><g transform="translate(64 127) scale(1.0783) translate(-64 -127)"><g transform="translate(-2.10 0) rotate(-4 63.5 50.00) translate(63.5 50.0) scale(0.6400000000000001 0.8) translate(-63.5 -50.0)"><circle cx="69.20" cy="30.75" r="1.50" fill="#FFFFFF"/></g></g></g></defs><use href="#hacq8079" filter="url(#obcq8079)"/><use href="#hacq8079"/></g></g></g>

<path d="M 370.7 86.6 L 371.9 88.1 L 372.9 89.7 L 373.9 91.4 L 374.7 93.1 L 375.4 94.9 L 376.0 96.7 L 376.4 98.6 L 376.8 100.4 L 376.9 102.3 L 377.0 104.2 L 376.9 106.2 L 376.7 108.0 L 376.3 109.9 L 375.9 111.8 L 375.2 113.6 L 374.5 115.3 L 373.6 117.0 L 372.7 118.7 L 371.6 120.2 L 370.4 121.7 L 369.1 123.1 L 367.7 124.4 L 366.2 125.6 L 364.6 126.7 L 363.0 127.7 L 361.3 128.5 L 359.5 129.3 L 357.7 129.9 L 355.8 130.4 L 354.0 130.7 L 352.1 130.9 L 350.2 131.0 L 348.3 130.9 L 346.4 130.8 L 344.5 130.4 L 342.6 130.0 L 340.8 129.4 L 339.0 128.7 L 337.3 127.8 L 335.7 126.9 L 334.1 125.8 L 332.6 124.6 L 331.2 123.3 L 329.8 122.0 L 328.6 120.5 L 327.5 118.9 L 326.5 117.3 L 325.6 115.6 L 324.9 113.9 L 324.2 112.1 L 323.7 110.2 L 323.4 108.4 L 323.1 106.5 L 323.0 104.6 L 323.0 102.7 L 323.2 100.8 L 323.5 98.9 L 323.9 97.0 L 315.2 94.7 L 334.4 88.4 L 342.3 101.9 L 333.6 99.6 L 333.3 100.8 L 333.1 102.0 L 333.0 103.2 L 333.0 104.4 L 333.1 105.6 L 333.2 106.8 L 333.5 107.9 L 333.8 109.1 L 334.2 110.2 L 334.7 111.3 L 335.2 112.4 L 335.8 113.4 L 336.5 114.4 L 337.3 115.3 L 338.1 116.2 L 339.0 117.0 L 340.0 117.7 L 341.0 118.4 L 342.0 119.0 L 343.1 119.5 L 344.2 120.0 L 345.4 120.4 L 346.5 120.6 L 347.7 120.8 L 348.9 121.0 L 350.1 121.0 L 351.3 120.9 L 352.5 120.8 L 353.7 120.6 L 354.8 120.3 L 356.0 119.9 L 357.1 119.5 L 358.2 118.9 L 359.2 118.3 L 360.2 117.6 L 361.1 116.9 L 362.0 116.0 L 362.8 115.2 L 363.6 114.2 L 364.3 113.2 L 364.9 112.2 L 365.4 111.1 L 365.9 110.0 L 366.3 108.9 L 366.6 107.7 L 366.8 106.5 L 366.9 105.4 L 367.0 104.2 L 367.0 103.0 L 366.9 101.8 L 366.7 100.6 L 366.4 99.4 L 366.0 98.3 L 365.6 97.1 L 365.0 96.1 L 364.4 95.0 L 363.8 94.0 L 363.0 93.1 Z" fill="#2b6fb0" stroke="#1a1a1a" stroke-width="2.5" stroke-linejoin="round"/></svg>
