<svg xmlns="http://www.w3.org/2000/svg" viewBox="33.94 46.74 444.12 444.12"><metadata id="sah">{"v":1,"fig":[["h1","fa"]]}</metadata>
<line x1="120" y1="452" x2="392" y2="452" stroke="#9a6a3a" stroke-width="6" stroke-linecap="round"/>
<g data-part="hair-back"><g transform="rotate(-4 256 188)"><g transform="translate(146.05 109.19) scale(1.821)"><defs><filter id="obcq1936" x="-45%" y="-45%" width="190%" height="190%"><feMorphology in="SourceAlpha" operator="dilate" radius="1.0000" result="d"/><feFlood flood-color="#1a1a1a" result="ink"/><feComposite in="ink" in2="d" operator="in"/></filter><g id="hacq1936"><g transform="translate(64 127) scale(1.0783) translate(-64 -127)"><g transform="translate(-1.82 0) rotate(-4 63.5 54.00) translate(63.5 54.0) scale(0.6016000000000001 0.8) translate(-63.5 -54.0)"><g transform="matrix(1.03483,0,0,1.03483,-31.2045,-4.45837)"><path d="M72.65,24.67C72.65,24.67 72.65,47.86 75.64,58.64C77.11,63.95 78.95,67.3 83.36,63.99L100.46,63.82C104.86,67.18 108.02,63.96 108.97,58.5C111.21,45.62 111.21,24.67 111.21,24.67L72.65,24.67Z" fill="#5a3a1f" fill-rule="nonzero" /></g></g></g></g></defs><use href="#hacq1936" filter="url(#obcq1936)"/><use href="#hacq1936"/></g></g></g><line x1="240" y1="389" x2="222" y2="455" stroke-linecap="round" stroke="#1a1a1a" stroke-width="27.3" data-part="ink"/><line x1="240" y1="389" x2="222" y2="455" stroke-linecap="round" stroke="#616161" stroke-width="19.3" data-part="leg"/><line x1="272" y1="389" x2="286" y2="437" stroke-linecap="round" stroke="#1a1a1a" stroke-width="27.3" data-part="ink"/><line x1="272" y1="389" x2="286" y2="437" stroke-linecap="round" stroke="#616161" stroke-width="19.3" data-part="leg"/><path data-part="dress" d="M 226.0 197.0 L 286.0 197.0 L 286.0 287.0 L 312.0 389.0 L 200.0 389.0 L 226.0 287.0 Z" fill="#5914F2" stroke="#1a1a1a" stroke-width="6" stroke-linejoin="round"/>


<ellipse cx="222" cy="460" rx="20" ry="11" fill="#444444" stroke="#1a1a1a" stroke-width="5.0" data-part="shoe"/>
<ellipse cx="286" cy="442" rx="20" ry="11" fill="#444444" stroke="#1a1a1a" stroke-width="5.0" data-part="shoe"/>
<line x1="230" y1="199" x2="198" y2="167" stroke-linecap="round" stroke="#1a1a1a" stroke-width="27.3" data-part="ink"/><line x1="230" y1="199" x2="198" y2="167" stroke-linecap="round" stroke="#f5d6b0" stroke-width="19.3" data-part="arm"/><line x1="230" y1="199" x2="219" y2="188" stroke-linecap="round" stroke="#1a1a1a" stroke-width="30.3" data-part="ink"/><line x1="230" y1="199" x2="219" y2="188" stroke-linecap="round" stroke="#5914F2" stroke-width="22.3" data-part="sleeve"/><circle cx="198" cy="167" r="10.6" fill="#f5d6b0" stroke="#1a1a1a" stroke-width="5.0" data-part="hand"/>
<line x1="282" y1="199" x2="297" y2="246" stroke-linecap="round" stroke="#1a1a1a" stroke-width="27.3" data-part="ink"/><line x1="297" y1="246" x2="300" y2="295" stroke-linecap="round" stroke="#1a1a1a" stroke-width="27.3" data-part="ink"/><line x1="282" y1="199" x2="297" y2="246" stroke-linecap="round" stroke="#f5d6b0" stroke-width="19.3" data-part="arm"/><line x1="297" y1="246" x2="300" y2="295" stroke-linecap="round" stroke="#f5d6b0" stroke-width="19.3" data-part="arm"/><line x1="282" y1="199" x2="293" y2="232" stroke-linecap="round" stroke="#1a1a1a" stroke-width="30.3" data-part="ink"/><line x1="282" y1="199" x2="293" y2="232" stroke-linecap="round" stroke="#5914F2" stroke-width="22.3" data-part="sleeve"/><circle cx="300" cy="295" r="10.6" fill="#f5d6b0" stroke="#1a1a1a" stroke-width="5.0" data-part="hand"/>
<line x1="256" y1="197" x2="256" y2="166" stroke-linecap="round" stroke="#1a1a1a" stroke-width="21.7" data-part="ink"/><line x1="256" y1="197" x2="256" y2="166" stroke-linecap="round" stroke="#f5d6b0" stroke-width="13.7" data-part="neck"/>

<g id="h1" data-fig="fa" data-part="head"><g transform="rotate(-4 256 188)"><g transform="translate(146.05 109.19) scale(1.821)"><defs><filter id="obcq1937" x="-45%" y="-45%" width="190%" height="190%"><feMorphology in="SourceAlpha" operator="dilate" radius="1.0000" result="d"/><feFlood flood-color="#1a1a1a" result="ink"/><feComposite in="ink" in2="d" operator="in"/></filter><g id="hacq1937"><g transform="translate(64 127) scale(1.0783) translate(-64 -127)"><g transform="translate(-1.82 0) rotate(-4 63.5 54.00) translate(63.5 54.0) scale(0.6016000000000001 0.8) translate(-63.5 -54.0)"><g transform="matrix(1.03483,0,0,1.03483,-31.2045,-4.45837)"><ellipse cx="91.93" cy="24.67" rx="19.28" ry="17.33" fill="#5a3a1f" /></g></g></g><g transform="translate(64 127) scale(1.0783) translate(-64 -127)"><g transform="translate(-1.82 0) rotate(-4 63.5 54.00) translate(63.5 54.0) scale(0.6400000000000001 0.8) translate(-63.5 -54.0)"><g transform="matrix(1.03483,0,0,1.03483,-31.2045,-4.45837)"><path d="M91.93,56.78C88.99,56.78 86.81,54.81 86.81,51.87L86.81,46.75L97.05,46.75L97.05,51.87C97.04,54.8 94.87,56.78 91.93,56.78Z" fill="#f5d6b0" fill-rule="nonzero" /></g></g></g><g transform="translate(64 127) scale(1.0783) translate(-64 -127)"><g transform="translate(-1.82 0) rotate(-4 63.5 54.00) translate(63.5 54.0) scale(0.6400000000000001 0.8) translate(-63.5 -54.0)"><g><g transform="matrix(1.03483,0,0,1.03483,-31.2045,-4.45837)"><path d="M91.93,11.51C80.08,11.51 76.98,20.7 76.98,33.6C76.98,46.51 86.17,50.44 91.93,50.44C97.69,50.44 106.88,46.5 106.88,33.6C106.88,20.7 103.78,11.51 91.93,11.51Z" fill="#f5d6b0" fill-rule="nonzero" /></g></g></g></g><g transform="translate(64 127) scale(1.0783) translate(-64 -127)"><g transform="translate(-1.82 0) rotate(-4 63.5 54.00) translate(63.5 54.0) scale(0.6016000000000001 0.8) translate(-63.5 -54.0)"><g transform="matrix(1.03483,0,0,1.03483,-31.2045,-4.45837)"><path d="M96.45,21.64C94.87,23.15 87.05,30.21 76.26,32.05L76.26,17.59C76.26,17.59 80.92,8.35 92.09,8.35C103.26,8.35 107.92,17.82 107.92,17.82L107.92,32.05C107.92,32.05 100.6,29.24 96.92,21.73C96.874,21.625 96.769,21.557 96.654,21.557C96.578,21.557 96.504,21.587 96.45,21.64Z" fill="#5a3a1f" fill-rule="nonzero" /></g></g></g><g transform="translate(64 127) scale(1.0783) translate(-64 -127)"><g transform="translate(-1.82 0) rotate(-4 63.5 54.00) translate(63.5 54.0) scale(0.6016000000000001 0.8) translate(-63.5 -54.0)"><g transform="matrix(1.03483,0,0,1.03483,-31.2045,-4.45837)"><path d="M96.35,42.79L91.93,42.79L87.51,42.79C87,42.79 86.79,43.13 87.12,43.64C87.59,44.35 89.33,45.73 91.93,45.73C94.53,45.73 96.27,44.36 96.74,43.64C97.07,43.13 96.85,42.79 96.35,42.79Z" fill="#5a3a1f" fill-rule="nonzero" /></g></g></g><g transform="translate(64 127) scale(1.0783) translate(-64 -127)"><g transform="translate(63.5 0) scale(0.62 1) translate(-63.5 0)"><g transform="matrix(1.03483,0,0,1.03483,-31.2045,-4.45837)"><path d="M94.06,39.31C93.31,39.52 92.53,39.63 91.92,39.63C91.31,39.63 90.54,39.53 89.78,39.31C89.46,39.22 89.33,39.52 89.45,39.73C89.69,40.15 90.65,41 91.92,41C93.19,41 94.15,40.15 94.39,39.73C94.51,39.52 94.38,39.22 94.06,39.31Z" fill="#c98a52" fill-rule="nonzero" /></g></g></g><g transform="translate(64 127) scale(1.0783) translate(-64 -127)"><g transform="translate(-1.82 0) rotate(-4 63.5 54.00) translate(63.5 54.0) scale(0.6400000000000001 0.8) translate(-63.5 -54.0)"><ellipse cx="54.2" cy="35.0" rx="2.2" ry="1.6" fill="#F48FB1" opacity="0.5"/></g></g><g transform="translate(64 127) scale(1.0783) translate(-64 -127)"><g transform="translate(-1.82 0) rotate(-4 63.5 54.00) translate(63.5 54.0) scale(0.6400000000000001 0.8) translate(-63.5 -54.0)"><ellipse cx="72.8" cy="35.0" rx="2.2" ry="1.6" fill="#F48FB1" opacity="0.5"/></g></g><g transform="translate(64 127) scale(1.0783) translate(-64 -127)"><g transform="translate(-1.82 0) rotate(-4 63.5 54.00) translate(63.5 54.0) scale(0.6400000000000001 0.8) translate(-63.5 -54.0)"><circle cx="57.80" cy="29.75" r="1.50" fill="#FFFFFF"/></g></g><g transform="translate(64 127) scale(1.0783) translate(-64 -127)"><g transform="translate(-1.82 0) rotate(-4 63.5 54.00) translate(63.5 54.0) scale(0.6400000000000001 0.8) translate(-63.5 -54.0)"><circle cx="69.20" cy="29.75" r="1.50" fill="#FFFFFF"/></g></g></g></defs><use href="#hacq1937" filter="url(#obcq1937)"/><use href="#hacq1937"/></g></g></g>

<g transform="translate(0.00 11.53) scale(1.000)"><path d="M 256 113 C 228.8 89.2 245.8 73.9 256 89.2 C 266.2 73.9 283.2 89.2 256 113 Z" fill="#e0559e" stroke="#1a1a1a" stroke-width="3" stroke-linejoin="round"/></g>
<circle cx="330" cy="150" r="9" fill="#1a1a1a" stroke="#1a1a1a" stroke-width="0"/>
<line x1="336" y1="150" x2="336" y2="113" stroke="#1a1a1a" stroke-width="4" stroke-linecap="round"/>

<circle cx="150" cy="170" r="7" fill="#1a1a1a" stroke="#1a1a1a" stroke-width="0"/>
<line x1="155" y1="170" x2="155" y2="139" stroke="#1a1a1a" stroke-width="4" stroke-linecap="round"/>
<path d="M 155.04 139.4 q 16 4 14 22" fill="none" stroke="#1a1a1a" stroke-width="4" stroke-linejoin="round"/>
</svg>
