<svg xmlns="http://www.w3.org/2000/svg" viewBox="32.58 52.21 438.30 438.30"><metadata id="sah">{"v":1,"fig":[["h1","fa"]]}</metadata>
<g data-part="hair-back"><g transform="rotate(-4 150 188)"><g transform="translate(40.05 109.19) scale(1.821)"><defs><filter id="obcq8792" x="-45%" y="-45%" width="190%" height="190%"><feMorphology in="SourceAlpha" operator="dilate" radius="1.0000" result="d"/><feFlood flood-color="#1a1a1a" result="ink"/><feComposite in="ink" in2="d" operator="in"/></filter><g id="hacq8792"><g transform="translate(64 127) scale(1.0783) translate(-64 -127)"><g transform="translate(-1.82 0) rotate(-4 63.5 54.00) translate(63.5 54.0) scale(0.6016000000000001 0.8) translate(-63.5 -54.0)"><g transform="matrix(1.03483,0,0,1.03483,-31.2045,-4.45837)"><path d="M72.65,24.67C72.65,24.67 72.65,47.86 75.64,58.64C77.11,63.95 78.95,67.3 83.36,63.99L100.46,63.82C104.86,67.18 108.02,63.96 108.97,58.5C111.21,45.62 111.21,24.67 111.21,24.67L72.65,24.67Z" fill="#5a3a1f" fill-rule="nonzero" /></g></g></g></g></defs><use href="#hacq8792" filter="url(#obcq8792)"/><use href="#hacq8792"/></g></g></g><line x1="137" y1="303" x2="148" y2="373" stroke-linecap="round" stroke="#1a1a1a" stroke-width="31.7" data-part="ink"/><line x1="148" y1="373" x2="126" y2="455" stroke-linecap="round" stroke="#1a1a1a" stroke-width="31.7" data-part="ink"/><line x1="137" y1="303" x2="148" y2="373" stroke-linecap="round" stroke="#616161" stroke-width="23.7" data-part="leg"/><line x1="148" y1="373" x2="126" y2="455" stroke-linecap="round" stroke="#616161" stroke-width="23.7" data-part="leg"/>
<line x1="163" y1="303" x2="152" y2="373" stroke-linecap="round" stroke="#1a1a1a" stroke-width="31.7" data-part="ink"/><line x1="152" y1="373" x2="174" y2="455" stroke-linecap="round" stroke="#1a1a1a" stroke-width="31.7" data-part="ink"/><line x1="163" y1="303" x2="152" y2="373" stroke-linecap="round" stroke="#616161" stroke-width="23.7" data-part="leg"/><line x1="152" y1="373" x2="174" y2="455" stroke-linecap="round" stroke="#616161" stroke-width="23.7" data-part="leg"/>
<ellipse cx="126" cy="460" rx="20" ry="11" fill="#444444" stroke="#1a1a1a" stroke-width="5.0" data-part="shoe"/>
<ellipse cx="174" cy="460" rx="20" ry="11" fill="#444444" stroke="#1a1a1a" stroke-width="5.0" data-part="shoe"/>
<polygon data-part="top" points="122,197 178,197 176,305 124,305" fill="#5914F2" stroke="#1a1a1a" stroke-width="6" stroke-linejoin="round"/>
<line x1="124" y1="199" x2="92" y2="248" stroke-linecap="round" stroke="#1a1a1a" stroke-width="27.3" data-part="ink"/><line x1="92" y1="248" x2="104" y2="305" stroke-linecap="round" stroke="#1a1a1a" stroke-width="27.3" data-part="ink"/><line x1="124" y1="199" x2="92" y2="248" stroke-linecap="round" stroke="#f5d6b0" stroke-width="19.3" data-part="arm"/><line x1="92" y1="248" x2="104" y2="305" stroke-linecap="round" stroke="#f5d6b0" stroke-width="19.3" data-part="arm"/><line x1="124" y1="199" x2="101" y2="233" stroke-linecap="round" stroke="#1a1a1a" stroke-width="30.3" data-part="ink"/><line x1="124" y1="199" x2="101" y2="233" stroke-linecap="round" stroke="#5914F2" stroke-width="22.3" data-part="sleeve"/><circle cx="104" cy="305" r="10.6" fill="#f5d6b0" stroke="#1a1a1a" stroke-width="5.0" data-part="hand"/>
<line x1="176" y1="199" x2="228" y2="221" stroke-linecap="round" stroke="#1a1a1a" stroke-width="27.3" data-part="ink"/><line x1="176" y1="199" x2="228" y2="221" stroke-linecap="round" stroke="#f5d6b0" stroke-width="19.3" data-part="arm"/><line x1="176" y1="199" x2="194" y2="207" stroke-linecap="round" stroke="#1a1a1a" stroke-width="30.3" data-part="ink"/><line x1="176" y1="199" x2="194" y2="207" stroke-linecap="round" stroke="#5914F2" stroke-width="22.3" data-part="sleeve"/><circle cx="228" cy="221" r="10.6" fill="#f5d6b0" stroke="#1a1a1a" stroke-width="5.0" data-part="hand"/>
<line x1="150" y1="197" x2="150" y2="166" stroke-linecap="round" stroke="#1a1a1a" stroke-width="21.7" data-part="ink"/><line x1="150" y1="197" x2="150" y2="166" stroke-linecap="round" stroke="#f5d6b0" stroke-width="13.7" data-part="neck"/>

<g id="h1" data-fig="fa" data-part="head"><g transform="rotate(-4 150 188)"><g transform="translate(40.05 109.19) scale(1.821)"><defs><filter id="obcq8793" x="-45%" y="-45%" width="190%" height="190%"><feMorphology in="SourceAlpha" operator="dilate" radius="1.0000" result="d"/><feFlood flood-color="#1a1a1a" result="ink"/><feComposite in="ink" in2="d" operator="in"/></filter><g id="hacq8793"><g transform="translate(64 127) scale(1.0783) translate(-64 -127)"><g transform="translate(-1.82 0) rotate(-4 63.5 54.00) translate(63.5 54.0) scale(0.6016000000000001 0.8) translate(-63.5 -54.0)"><g transform="matrix(1.03483,0,0,1.03483,-31.2045,-4.45837)"><ellipse cx="91.93" cy="24.67" rx="19.28" ry="17.33" fill="#5a3a1f" /></g></g></g><g transform="translate(64 127) scale(1.0783) translate(-64 -127)"><g transform="translate(-1.82 0) rotate(-4 63.5 54.00) translate(63.5 54.0) scale(0.6400000000000001 0.8) translate(-63.5 -54.0)"><g transform="matrix(1.03483,0,0,1.03483,-31.2045,-4.45837)"><path d="M91.93,56.78C88.99,56.78 86.81,54.81 86.81,51.87L86.81,46.75L97.05,46.75L97.05,51.87C97.04,54.8 94.87,56.78 91.93,56.78Z" fill="#f5d6b0" fill-rule="nonzero" /></g></g></g><g transform="translate(64 127) scale(1.0783) translate(-64 -127)"><g transform="translate(-1.82 0) rotate(-4 63.5 54.00) translate(63.5 54.0) scale(0.6400000000000001 0.8) translate(-63.5 -54.0)"><g><g transform="matrix(1.03483,0,0,1.03483,-31.2045,-4.45837)"><path d="M91.93,11.51C80.08,11.51 76.98,20.7 76.98,33.6C76.98,46.51 86.17,50.44 91.93,50.44C97.69,50.44 106.88,46.5 106.88,33.6C106.88,20.7 103.78,11.51 91.93,11.51Z" fill="#f5d6b0" fill-rule="nonzero" /></g></g></g></g><g transform="translate(64 127) scale(1.0783) translate(-64 -127)"><g transform="translate(-1.82 0) rotate(-4 63.5 54.00) translate(63.5 54.0) scale(0.6016000000000001 0.8) translate(-63.5 -54.0)"><g transform="matrix(1.03483,0,0,1.03483,-31.2045,-4.45837)"><path d="M96.45,21.64C94.87,23.15 87.05,30.21 76.26,32.05L76.26,17.59C76.26,17.59 80.92,8.35 92.09,8.35C103.26,8.35 107.92,17.82 107.92,17.82L107.92,32.05C107.92,32.05 100.6,29.24 96.92,21.73C96.874,21.625 96.769,21.557 96.654,21.557C96.578,21.557 96.504,21.587 96.45,21.64Z" fill="#5a3a1f" fill-rule="nonzero" /></g></g></g><g transform="translate(64 127) scale(1.0783) translate(-64 -127)"><g transform="translate(-1.82 0) rotate(-4 63.5 54.00) translate(63.5 54.0) scale(0.6016000000000001 0.8) translate(-63.5 -54.0)"><g transform="matrix(1.03483,0,0,1.03483,-31.2045,-4.45837)"><path d="M96.35,42.79L91.93,42.79L87.51,42.79C87,42.79 86.79,43.13 87.12,43.64C87.59,44.35 89.33,45.73 91.93,45.73C94.53,45.73 96.27,44.36 96.74,43.64C97.07,43.13 96.85,42.79 96.35,42.79Z" fill="#5a3a1f" fill-rule="nonzero" /></g></g></g><g transform="translate(64 127) scale(1.0783) translate(-64 -127)"><g transform="translate(63.5 0) scale(0.62 1) translate(-63.5 0)"><g transform="matrix(1.03483,0,0,1.03483,-31.2045,-4.45837)"><path d="M94.06,39.31C93.31,39.52 92.53,39.63 91.92,39.63C91.31,39.63 90.54,39.53 89.78,39.31C89.46,39.22 89.33,39.52 89.45,39.73C89.69,40.15 90.65,41 91.92,41C93.19,41 94.15,40.15 94.39,39.73C94.51,39.52 94.38,39.22 94.06,39.31Z" fill="#c98a52" fill-rule="nonzero" /></g></g></g><g transform="translate(64 127) scale(1.0783) translate(-64 -127)"><g transform="translate(-1.82 0) rotate(-4 63.5 54.00) translate(63.5 54.0) scale(0.6400000000000001 0.8) translate(-63.5 -54.0)"><ellipse cx="54.2" cy="35.0" rx="2.2" ry="1.6" fill="#F48FB1" opacity="0.5"/></g></g><g transform="translate(64 127) scale(1.0783) translate(-64 -127)"><g transform="translate(-1.82 0) rotate(-4 63.5 54.00) translate(63.5 54.0) scale(0.6400000000000001 0.8) translate(-63.5 -54.0)"><ellipse cx="72.8" cy="35.0" rx="2.2" ry="1.6" fill="#F48FB1" opacity="0.5"/></g></g><g transform="translate(64 127) scale(1.0783) translate(-64 -127)"><g transform="translate(-1.82 0) rotate(-4 63.5 54.00) translate(63.5 54.0) scale(0.6400000000000001 0.8) translate(-63.5 -54.0)"><circle cx="57.80" cy="29.75" r="1.50" fill="#FFFFFF"/></g></g><g transform="translate(64 127) scale(1.0783) translate(-64 -127)"><g transform="translate(-1.82 0) rotate(-4 63.5 54.00) translate(63.5 54.0) scale(0.6400000000000001 0.8) translate(-63.5 -54.0)"><circle cx="69.20" cy="29.75" r="1.50" fill="#FFFFFF"/></g></g></g></defs><use href="#hacq8793" filter="url(#obcq8793)"/><use href="#hacq8793"/></g></g></g>




<polygon points="270.0,282 390.0,282 380.0,360 288.0,360" fill="#bfe0f0" stroke="#1a1a1a" stroke-width="4" stroke-linejoin="round"/>
<line x1="276" y1="302" x2="386" y2="302" stroke="#5a6675" stroke-width="2" stroke-linecap="round"/>
<line x1="281" y1="321" x2="383" y2="321" stroke="#5a6675" stroke-width="2" stroke-linecap="round"/>
<line x1="286" y1="340" x2="380" y2="340" stroke="#5a6675" stroke-width="2" stroke-linecap="round"/>
<line x1="299" y1="286" x2="299" y2="356" stroke="#5a6675" stroke-width="2" stroke-linecap="round"/>
<line x1="318" y1="286" x2="318" y2="356" stroke="#5a6675" stroke-width="2" stroke-linecap="round"/>
<line x1="338" y1="286" x2="338" y2="356" stroke="#5a6675" stroke-width="2" stroke-linecap="round"/>
<line x1="357" y1="286" x2="357" y2="356" stroke="#5a6675" stroke-width="2" stroke-linecap="round"/>
<line x1="272" y1="282" x2="266" y2="226" stroke="#5a6675" stroke-width="6" stroke-linecap="round"/>
<line x1="266" y1="226" x2="244" y2="226" stroke="#5a6675" stroke-width="8" stroke-linecap="round"/>
<line x1="296" y1="360" x2="300" y2="382" stroke="#5a6675" stroke-width="5" stroke-linecap="round"/>
<line x1="374" y1="360" x2="374" y2="382" stroke="#5a6675" stroke-width="5" stroke-linecap="round"/>
<circle cx="304" cy="388" r="9" fill="#3a4654" stroke="#1a1a1a" stroke-width="3"/>
<circle cx="372" cy="388" r="9" fill="#3a4654" stroke="#1a1a1a" stroke-width="3"/>
<path d="M 286.0 310.0 L 286.0 289.0 Q 286.0 282.0 297.0 282.0 Q 308 276.0 319.0 282.0 Q 330.0 282.0 330.0 289.0 L 330.0 310.0 Z" fill="#d9a441" stroke="#1a1a1a" stroke-width="4" stroke-linejoin="round"/>
<line x1="292" y1="298" x2="324" y2="298" stroke="#7a4a24" stroke-width="2" stroke-linecap="round"/>
<polygon points="333.0,309.0 333.0,274.5 348,263.0 363.0,274.5 363.0,309.0" fill="#eaf2f7" stroke="#1a1a1a" stroke-width="4" stroke-linejoin="round"/>
<rect x="341" y="262" width="14" height="8" rx="2" fill="#2b6fb0" stroke="#1a1a1a" stroke-width="2"/>
<line x1="338" y1="296" x2="358" y2="296" stroke="#2b6fb0" stroke-width="6" stroke-linecap="round"/>
<circle cx="328" cy="298" r="13" fill="#3fae5a" stroke="#1a1a1a" stroke-width="3"/>
<line x1="328" y1="285" x2="331" y2="276" stroke="#7a4a24" stroke-width="3" stroke-linecap="round"/>
<path d="M 331 278 q 9 -4 12 4 q -9 3 -12 -4" fill="none" stroke="#2f7a3a" stroke-width="2" stroke-linejoin="round"/>
<rect x="347" y="284" width="26" height="36" rx="3" fill="#e0473c" stroke="#1a1a1a" stroke-width="3"/>
<ellipse cx="360" cy="284" rx="13" ry="5" fill="#d7dde3" stroke="#1a1a1a" stroke-width="2"/>
<rect x="349" y="298" width="22" height="12" rx="0" fill="#ffffff" stroke="#1a1a1a" stroke-width="0"/>
<circle cx="336" cy="304" r="11" fill="#e0473c" stroke="#1a1a1a" stroke-width="3"/>
<line x1="336" y1="293" x2="339" y2="284" stroke="#7a4a24" stroke-width="3" stroke-linecap="round"/>
<path d="M 339 286 q 9 -4 12 4 q -9 3 -12 -4" fill="none" stroke="#2f7a3a" stroke-width="2" stroke-linejoin="round"/>

<line x1="234" y1="221" x2="254" y2="230" stroke="#f1c9a5" stroke-width="6" stroke-linecap="round"/>
<rect x="312" y="96" width="92" height="76" rx="6" fill="#ffffff" stroke="#1a1a1a" stroke-width="4"/>
<rect x="312" y="96" width="92" height="20" rx="0" fill="#e0473c" stroke="#1a1a1a" stroke-width="0"/>
<line x1="330" y1="90" x2="330" y2="106" stroke="#5a6675" stroke-width="5" stroke-linecap="round"/>
<line x1="386" y1="90" x2="386" y2="106" stroke="#5a6675" stroke-width="5" stroke-linecap="round"/>
<line x1="342" y1="118" x2="342" y2="172" stroke="#9aa7b5" stroke-width="1.5" stroke-linecap="round"/>
<line x1="373" y1="118" x2="373" y2="172" stroke="#9aa7b5" stroke-width="1.5" stroke-linecap="round"/>
<line x1="314" y1="136" x2="404" y2="136" stroke="#9aa7b5" stroke-width="1.5" stroke-linecap="round"/>
<line x1="314" y1="154" x2="404" y2="154" stroke="#9aa7b5" stroke-width="1.5" stroke-linecap="round"/>
<line x1="340" y1="128" x2="376" y2="128" stroke="#2b6fb0" stroke-width="6" stroke-linecap="round"/>
<line x1="376" y1="128" x2="354" y2="164" stroke="#2b6fb0" stroke-width="6" stroke-linecap="round"/>
<line x1="120" y1="455" x2="392" y2="455" stroke="#5a6675" stroke-width="5" stroke-linecap="round"/>
</svg>
